<mxfile host="app.diagrams.net" agent="Mozilla/5.0 (X11; Linux x86_64) AppleWebKit/537.36 (KHTML, like Gecko) Chrome/140.0.0.0 Safari/537.36 Edg/140.0.0.0" version="28.2.1">
  <diagram id="page1" name="Page-1">
    <mxGraphModel dx="1419" dy="772" grid="1" gridSize="10" guides="1" tooltips="1" connect="1" arrows="1" fold="1" page="1" pageScale="1" pageWidth="827" pageHeight="1169" math="0" shadow="0" adaptiveColors="auto">
      <root>
        <mxCell id="0" />
        <mxCell id="1" parent="0" />
        <mxCell id="2" value="beheerders" style="rounded=1;whiteSpace=wrap;html=1;fillColor=#dae8fc;strokeColor=#000000;" parent="1" vertex="1">
          <mxGeometry x="40" y="250" width="140" height="50" as="geometry" />
        </mxCell>
        <mxCell id="3" value="assettypes" style="rounded=1;whiteSpace=wrap;html=1;fillColor=#dae8fc;strokeColor=#000000;" parent="1" vertex="1">
          <mxGeometry x="260" y="470" width="140" height="50" as="geometry" />
        </mxCell>
        <mxCell id="4" value="bestekken" style="rounded=1;whiteSpace=wrap;html=1;fillColor=#dae8fc;strokeColor=#000000;" parent="1" vertex="1">
          <mxGeometry x="310" y="150" width="140" height="50" as="geometry" />
        </mxCell>
        <mxCell id="5" value="relatietypes" style="rounded=1;whiteSpace=wrap;html=1;fillColor=#dae8fc;strokeColor=#000000;" parent="1" vertex="1">
          <mxGeometry x="560" y="240" width="140" height="50" as="geometry" />
        </mxCell>
        <mxCell id="6" value="vplankoppelingen" style="rounded=1;whiteSpace=wrap;html=1;fillColor=#dae8fc;strokeColor=#000000;" parent="1" vertex="1">
          <mxGeometry x="100" y="150" width="140" height="50" as="geometry" />
        </mxCell>
        <mxCell id="7" value="agents" style="rounded=1;whiteSpace=wrap;html=1;fillColor=#dae8fc;strokeColor=#000000;" parent="1" vertex="1">
          <mxGeometry x="430" y="470" width="140" height="50" as="geometry" />
        </mxCell>
        <mxCell id="10" value="aansluitingrefs" style="rounded=1;whiteSpace=wrap;html=1;fillColor=#dae8fc;strokeColor=#000000;" parent="1" vertex="1">
          <mxGeometry x="500" y="150" width="140" height="50" as="geometry" />
        </mxCell>
        <mxCell id="11" value="toezichtgroepen" style="rounded=1;whiteSpace=wrap;html=1;fillColor=#dae8fc;strokeColor=#000000;" parent="1" vertex="1">
          <mxGeometry x="50" y="350" width="140" height="50" as="geometry" />
        </mxCell>
        <mxCell id="cKA1zZCl6g8Xmu-5q84f-29" value="" style="edgeStyle=orthogonalEdgeStyle;rounded=0;orthogonalLoop=1;jettySize=auto;html=1;strokeColor=light-dark(#000000,#FF0000);" edge="1" parent="1" source="13">
          <mxGeometry relative="1" as="geometry">
            <mxPoint x="520" y="360" as="targetPoint" />
          </mxGeometry>
        </mxCell>
        <mxCell id="13" value="&lt;font style=&quot;color: light-dark(rgb(0, 0, 0), rgb(255, 0, 0));&quot;&gt;assetrelaties&lt;/font&gt;" style="rounded=1;whiteSpace=wrap;html=1;fillColor=#dae8fc;strokeColor=light-dark(#000000,#FF0000);" parent="1" vertex="1">
          <mxGeometry x="560" y="342.5" width="140" height="35" as="geometry" />
        </mxCell>
        <mxCell id="14" value="assets" style="rounded=1;whiteSpace=wrap;html=1;fillColor=#dae8fc;strokeColor=#000000;" parent="1" vertex="1">
          <mxGeometry x="310" y="330" width="140" height="60" as="geometry" />
        </mxCell>
        <mxCell id="15" value="identiteiten" style="rounded=1;whiteSpace=wrap;html=1;fillColor=#dae8fc;strokeColor=#000000;" parent="1" vertex="1">
          <mxGeometry x="70" y="450" width="140" height="50" as="geometry" />
        </mxCell>
        <mxCell id="16" value="&#xa;" style="edgeStyle=orthogonalEdgeStyle;rounded=0;endArrow=none;strokeColor=light-dark(#000000,#FF0000);" parent="1" source="14" target="14" edge="1">
          <mxGeometry y="30" relative="1" as="geometry">
            <Array as="points">
              <mxPoint x="520" y="360" />
            </Array>
            <mxPoint as="offset" />
          </mxGeometry>
        </mxCell>
        <mxCell id="17" value="betrokkenerelaties" style="edgeStyle=orthogonalEdgeStyle;rounded=0;endArrow=none;strokeColor=light-dark(#000000,#FF0000);fontColor=light-dark(#000000,#FF0000);" parent="1" source="7" target="7" edge="1">
          <mxGeometry y="50" relative="1" as="geometry">
            <Array as="points">
              <mxPoint x="600" y="495" />
            </Array>
            <mxPoint as="offset" />
          </mxGeometry>
        </mxCell>
        <mxCell id="18" value="betrokkenerelaties" style="edgeStyle=orthogonalEdgeStyle;rounded=0;endArrow=none;strokeColor=light-dark(#000000,#FF0000);noEdgeStyle=1;fontColor=light-dark(#000000,#FF0000);" parent="1" source="14" target="7" edge="1">
          <mxGeometry relative="1" as="geometry" />
        </mxCell>
        <mxCell id="19" value="bestekkoppelingen" style="edgeStyle=orthogonalEdgeStyle;rounded=0;endArrow=none;strokeColor=light-dark(#000000,#FF0000);noEdgeStyle=1;fontColor=light-dark(#000000,#FF0000);" parent="1" source="14" target="4" edge="1">
          <mxGeometry relative="1" as="geometry" />
        </mxCell>
        <mxCell id="20" value="aansluitingen" style="edgeStyle=orthogonalEdgeStyle;rounded=0;endArrow=none;strokeColor=light-dark(#000000,#FF0000);noEdgeStyle=1;fontColor=light-dark(#000000,#FF0000);" parent="1" source="14" target="10" edge="1">
          <mxGeometry relative="1" as="geometry" />
        </mxCell>
        <mxCell id="21" value="asset_key" style="edgeStyle=orthogonalEdgeStyle;rounded=0;endArrow=none;strokeColor=#000000;noEdgeStyle=1;" parent="1" source="6" target="14" edge="1">
          <mxGeometry relative="1" as="geometry" />
        </mxCell>
        <mxCell id="22" value="relatietype_key" style="edgeStyle=orthogonalEdgeStyle;rounded=0;endArrow=none;strokeColor=#000000;noEdgeStyle=1;" parent="1" source="13" target="5" edge="1">
          <mxGeometry relative="1" as="geometry" />
        </mxCell>
        <mxCell id="23" value="assettype_key" style="edgeStyle=orthogonalEdgeStyle;rounded=0;endArrow=none;strokeColor=#000000;noEdgeStyle=1;" parent="1" source="14" target="3" edge="1">
          <mxGeometry relative="1" as="geometry" />
        </mxCell>
        <mxCell id="24" value="toezichter_key" style="edgeStyle=orthogonalEdgeStyle;rounded=0;endArrow=none;strokeColor=#000000;noEdgeStyle=1;" parent="1" source="14" target="15" edge="1">
          <mxGeometry relative="1" as="geometry" />
        </mxCell>
        <mxCell id="25" value="toezichtgroep_key" style="edgeStyle=orthogonalEdgeStyle;rounded=0;endArrow=none;strokeColor=#000000;noEdgeStyle=1;" parent="1" source="14" target="11" edge="1">
          <mxGeometry relative="1" as="geometry" />
        </mxCell>
        <mxCell id="cKA1zZCl6g8Xmu-5q84f-28" value="beheerder_key" style="edgeStyle=orthogonalEdgeStyle;rounded=0;endArrow=none;strokeColor=#000000;noEdgeStyle=1;exitX=1;exitY=0.75;exitDx=0;exitDy=0;entryX=0.197;entryY=-0.01;entryDx=0;entryDy=0;entryPerimeter=0;" edge="1" parent="1" source="2" target="14">
          <mxGeometry relative="1" as="geometry">
            <mxPoint x="270" y="250" as="sourcePoint" />
            <mxPoint x="350" y="276" as="targetPoint" />
          </mxGeometry>
        </mxCell>
      </root>
    </mxGraphModel>
  </diagram>
</mxfile>
